<svg width="453" height="511" viewBox="0 0 453 511" fill="none" xmlns="http://www.w3.org/2000/svg">
<path d="M331.526 2.95381L191.196 27.698L191.191 27.6987L140.57 36.5373L138.036 36.9796L138.55 39.4997L148.965 90.5528L149.452 92.9378L151.849 92.5152L198.627 84.2669L214.282 173.052L6.11898 209.757L3.65696 210.191L4.09108 212.653L14.51 271.741L14.9441 274.203L17.4061 273.769L89.2971 261.093L132.274 504.828L132.708 507.29L135.17 506.856L202.137 495.048L204.599 494.614L204.165 492.152L185.993 389.092L252.836 377.305L401.05 351.171L401.768 351.045L402.306 350.552C439.788 316.171 455.143 277.87 447.727 235.813C444.511 217.57 437.846 202.3 427.653 190.109C417.893 178.435 404.991 169.697 389.042 163.853C410.291 144.09 417.38 115.535 410.907 78.8222C407.109 57.2856 397.444 39.9479 381.871 26.9635C366.502 14.1495 350.009 6.11371 332.402 2.95512L331.964 2.8766L331.526 2.95381ZM240.65 322.59L176.269 333.943L161.188 248.416L225.57 237.064L240.65 322.59ZM369.837 273.227L369.826 273.26L369.816 273.294C367.023 282.684 363.304 289.746 358.768 294.655L311.326 303.02L296.392 218.327L346.402 209.509C352.191 211.932 357.54 216.238 362.417 222.583C367.423 229.094 370.718 236.737 372.274 245.564C373.814 254.298 373.03 263.505 369.837 273.227ZM331.295 149.724L285.712 157.761L271.907 79.469L318.814 71.1981C332.953 78.9696 341.511 91.2508 344.517 108.299C347.518 125.317 343.086 139.003 331.295 149.724Z" fill="white" stroke="#EEF2FF" stroke-width="5"/>
</svg>
